<svg width="1050" height="900" viewBox="0 0 1050 900" fill="none" xmlns="http://www.w3.org/2000/svg">
<rect x="150" y="50" width="50" height="50" fill="black"/>
<rect x="150" y="100" width="50" height="50" fill="#D3140A"/>
<rect x="100" y="150" width="50" height="50" fill="#D3140A"/>
<rect x="150" y="150" width="50" height="50" fill="#D3140A"/>
<rect x="150" y="200" width="50" height="50" fill="#D3140A"/>
<rect x="200" y="200" width="50" height="50" fill="#D3140A"/>
<rect x="100" y="200" width="50" height="50" fill="#D3140A"/>
<rect x="50" y="200" width="50" height="50" fill="#D3140A"/>
<rect x="50" y="250" width="50" height="50" fill="#D3140A"/>
<rect x="50" y="300" width="50" height="50" fill="#D3140A"/>
<rect x="150" y="250" width="50" height="50" fill="#D3140A"/>
<rect x="200" y="250" width="50" height="50" fill="#D3140A"/>
<rect x="200" y="300" width="50" height="50" fill="#D3140A"/>
<rect x="150" y="300" width="50" height="50" fill="#FEEA35"/>
<rect x="150" y="400" width="50" height="50" fill="#F65924"/>
<rect x="100" y="250" width="50" height="50" fill="#FEEA35"/>
<rect x="150" y="350" width="50" height="50" fill="#FEEA35"/>
<rect x="150" y="450" width="50" height="50" fill="#F65924"/>
<rect x="200" y="450" width="50" height="50" fill="#F65924"/>
<rect x="200" y="500" width="50" height="50" fill="#F65924"/>
<rect x="250" y="500" width="50" height="50" fill="#F65924"/>
<rect x="200" y="550" width="50" height="50" fill="#F65924"/>
<rect x="250" y="550" width="50" height="50" fill="#F65924"/>
<rect x="350" y="550" width="50" height="50" fill="#F65924"/>
<rect x="350" y="600" width="50" height="50" fill="#F65924"/>
<rect x="400" y="600" width="50" height="50" fill="#F65924"/>
<rect x="450" y="600" width="50" height="50" fill="#F65924"/>
<rect x="350" y="650" width="50" height="50" fill="#F65924"/>
<rect x="400" y="650" width="50" height="50" fill="#F65924"/>
<rect x="450" y="650" width="50" height="50" fill="#F65924"/>
<rect x="500" y="650" width="50" height="50" fill="#F65924"/>
<rect x="400" y="700" width="50" height="50" fill="#F65924"/>
<rect x="450" y="700" width="50" height="50" fill="#F65924"/>
<rect x="450" y="750" width="50" height="50" fill="#F65924"/>
<rect x="450" y="800" width="50" height="50" fill="#F65924"/>
<rect x="500" y="700" width="50" height="50" fill="#F65924"/>
<rect x="400" y="550" width="50" height="50" fill="#F65924"/>
<rect x="400" y="500" width="50" height="50" fill="#F65924"/>
<rect x="400" y="450" width="50" height="50" fill="#F65924"/>
<rect x="500" y="550" width="50" height="50" fill="#F65924"/>
<rect x="500" y="500" width="50" height="50" fill="#F65924"/>
<rect x="500" y="450" width="50" height="50" fill="#F65924"/>
<rect x="500" y="350" width="50" height="50" fill="#F65924"/>
<rect x="550" y="350" width="50" height="50" fill="#F65924"/>
<rect x="600" y="350" width="50" height="50" fill="#F65924"/>
<rect x="650" y="350" width="50" height="50" fill="#F65924"/>
<rect x="650" y="100" width="50" height="50" fill="#F65924"/>
<rect x="700" y="100" width="50" height="50" fill="#F65924"/>
<rect x="750" y="100" width="50" height="50" fill="#F65924"/>
<rect x="800" y="100" width="50" height="50" fill="#F65924"/>
<rect x="850" y="100" width="50" height="50" fill="#F65924"/>
<rect x="800" y="250" width="50" height="50" fill="#F65924"/>
<rect x="850" y="250" width="50" height="50" fill="#F65924"/>
<rect x="900" y="250" width="50" height="50" fill="#F65924"/>
<rect x="950" y="250" width="50" height="50" fill="#F65924"/>
<rect x="600" y="100" width="50" height="50" fill="#F65924"/>
<rect x="550" y="450" width="50" height="50" fill="#F65924"/>
<rect x="600" y="450" width="50" height="50" fill="#F65924"/>
<rect x="650" y="450" width="50" height="50" fill="#F65924"/>
<rect x="650" y="200" width="50" height="50" fill="#F65924"/>
<rect x="700" y="200" width="50" height="50" fill="#F65924"/>
<rect x="750" y="200" width="50" height="50" fill="#F65924"/>
<rect x="800" y="200" width="50" height="50" fill="#F65924"/>
<rect x="850" y="200" width="50" height="50" fill="#F65924"/>
<rect x="900" y="200" width="50" height="50" fill="#F65924"/>
<rect x="800" y="350" width="50" height="50" fill="#F65924"/>
<rect x="850" y="350" width="50" height="50" fill="#F65924"/>
<rect x="900" y="350" width="50" height="50" fill="#F65924"/>
<rect x="950" y="350" width="50" height="50" fill="#F65924"/>
<rect x="600" y="200" width="50" height="50" fill="#F65924"/>
<rect x="550" y="200" width="50" height="50" fill="#F65924"/>
<rect x="650" y="250" width="50" height="50" fill="#F65924"/>
<rect x="600" y="250" width="50" height="50" fill="#F65924"/>
<rect x="550" y="250" width="50" height="50" fill="#F65924"/>
<rect x="700" y="450" width="50" height="50" fill="#F65924"/>
<rect x="700" y="350" width="50" height="50" fill="black"/>
<rect x="750" y="350" width="50" height="50" fill="black"/>
<rect x="750" y="450" width="50" height="50" fill="#F65924"/>
<rect x="800" y="450" width="50" height="50" fill="#F65924"/>
<rect x="600" y="500" width="50" height="50" fill="#F65924"/>
<rect x="650" y="500" width="50" height="50" fill="#F65924"/>
<rect x="500" y="400" width="50" height="50" fill="#F65924"/>
<rect x="500" y="300" width="50" height="50" fill="#F65924"/>
<rect x="550" y="300" width="50" height="50" fill="#F65924"/>
<rect x="600" y="300" width="50" height="50" fill="#F65924"/>
<rect x="650" y="300" width="50" height="50" fill="#F65924"/>
<rect x="650" y="50" width="50" height="50" fill="#F65924"/>
<rect x="700" y="50" width="50" height="50" fill="#F65924"/>
<rect x="750" y="50" width="50" height="50" fill="#F65924"/>
<rect x="800" y="50" width="50" height="50" fill="#F65924"/>
<rect x="550" y="400" width="50" height="50" fill="#F65924"/>
<rect x="600" y="400" width="50" height="50" fill="#F65924"/>
<rect x="650" y="400" width="50" height="50" fill="#F65924"/>
<rect x="650" y="150" width="50" height="50" fill="#F65924"/>
<rect x="700" y="150" width="50" height="50" fill="#F65924"/>
<rect x="750" y="150" width="50" height="50" fill="#F65924"/>
<rect x="800" y="150" width="50" height="50" fill="#F65924"/>
<rect x="850" y="150" width="50" height="50" fill="#F65924"/>
<rect x="800" y="300" width="50" height="50" fill="#F65924"/>
<rect x="850" y="300" width="50" height="50" fill="#F65924"/>
<rect x="900" y="300" width="50" height="50" fill="#F65924"/>
<rect x="950" y="300" width="50" height="50" fill="#F65924"/>
<rect x="600" y="150" width="50" height="50" fill="#F65924"/>
<rect x="700" y="400" width="50" height="50" fill="#F65924"/>
<rect x="700" y="300" width="50" height="50" fill="black"/>
<rect x="750" y="300" width="50" height="50" fill="black"/>
<rect x="750" y="250" width="50" height="50" fill="white"/>
<rect x="700" y="250" width="50" height="50" fill="black"/>
<rect x="750" y="400" width="50" height="50" fill="#F65924"/>
<rect x="800" y="400" width="50" height="50" fill="#F65924"/>
<rect x="850" y="400" width="50" height="50" fill="#F65924"/>
<rect x="900" y="400" width="50" height="50" fill="#F65924"/>
<rect x="550" y="550" width="50" height="50" fill="#F65924"/>
<rect x="450" y="550" width="50" height="50" fill="#F65924"/>
<rect x="450" y="500" width="50" height="50" fill="#F65924"/>
<rect x="450" y="450" width="50" height="50" fill="#F65924"/>
<rect x="450" y="400" width="50" height="50" fill="#F65924"/>
<rect x="250" y="600" width="50" height="50" fill="#F65924"/>
<rect x="100" y="300" width="50" height="50" fill="#FEEA35"/>
<rect x="100" y="100" width="50" height="50" fill="black"/>
<rect x="200" y="100" width="50" height="50" fill="black"/>
<rect x="200" y="150" width="50" height="50" fill="black"/>
<rect x="250" y="200" width="50" height="50" fill="black"/>
<rect x="250" y="250" width="50" height="50" fill="black"/>
<rect x="250" y="300" width="50" height="50" fill="black"/>
<rect x="200" y="350" width="50" height="50" fill="black"/>
<rect x="200" y="400" width="50" height="50" fill="black"/>
<rect x="250" y="450" width="50" height="50" fill="black"/>
<rect x="300" y="500" width="50" height="50" fill="black"/>
<rect x="350" y="500" width="50" height="50" fill="black"/>
<rect x="350" y="453" width="50" height="50" fill="black"/>
<rect x="350" y="450" width="50" height="50" fill="black"/>
<rect x="400" y="400" width="50" height="50" fill="black"/>
<rect x="450" y="350" width="50" height="50" fill="black"/>
<rect x="450" y="300" width="50" height="50" fill="black"/>
<rect x="500" y="250" width="50" height="50" fill="black"/>
<rect x="500" y="200" width="50" height="50" fill="black"/>
<rect x="550" y="150" width="50" height="50" fill="black"/>
<rect x="550" y="100" width="50" height="50" fill="black"/>
<rect x="600" y="50" width="50" height="50" fill="black"/>
<rect x="650" width="50" height="50" fill="black"/>
<rect x="700" width="50" height="50" fill="black"/>
<rect x="750" width="50" height="50" fill="black"/>
<rect x="800" width="50" height="50" fill="black"/>
<rect x="850" y="50" width="50" height="50" fill="black"/>
<rect x="900" y="100" width="50" height="50" fill="black"/>
<rect x="900" y="150" width="50" height="50" fill="black"/>
<rect x="950" y="200" width="50" height="50" fill="black"/>
<rect x="1000" y="250" width="50" height="50" fill="black"/>
<rect x="1000" y="300" width="50" height="50" fill="black"/>
<rect x="1000" y="350" width="50" height="50" fill="black"/>
<rect x="950" y="400" width="50" height="50" fill="black"/>
<rect x="900" y="450" width="50" height="50" fill="black"/>
<rect x="850" y="450" width="50" height="50" fill="black"/>
<rect x="800" y="500" width="50" height="50" fill="black"/>
<rect x="750" y="500" width="50" height="50" fill="black"/>
<rect x="700" y="500" width="50" height="50" fill="black"/>
<rect x="750" y="550" width="50" height="50" fill="black"/>
<rect x="750" y="600" width="50" height="50" fill="black"/>
<rect x="700" y="650" width="50" height="50" fill="black"/>
<rect x="600" y="550" width="50" height="50" fill="black"/>
<rect x="650" y="550" width="50" height="50" fill="#FEEA35"/>
<rect x="650" y="600" width="50" height="50" fill="#FEEA35"/>
<rect x="600" y="600" width="50" height="50" fill="#FEEA35"/>
<rect x="600" y="650" width="50" height="50" fill="#FEEA35"/>
<rect x="550" y="650" width="50" height="50" fill="#FEEA35"/>
<rect x="650" y="650" width="50" height="50" fill="#FEEA35"/>
<rect x="600" y="700" width="50" height="50" fill="#FEEA35"/>
<rect x="550" y="700" width="50" height="50" fill="#FEEA35"/>
<rect x="700" y="550" width="50" height="50" fill="#FEEA35"/>
<rect x="700" y="600" width="50" height="50" fill="#FEEA35"/>
<rect x="550" y="500" width="50" height="50" fill="black"/>
<rect x="550" y="600" width="50" height="50" fill="black"/>
<rect x="500" y="600" width="50" height="50" fill="black"/>
<rect x="800" y="650" width="50" height="50" fill="black"/>
<rect x="750" y="700" width="50" height="50" fill="black"/>
<rect x="700" y="700" width="50" height="50" fill="black"/>
<rect x="650" y="700" width="50" height="50" fill="black"/>
<rect x="600" y="750" width="50" height="50" fill="black"/>
<rect x="550" y="750" width="50" height="50" fill="black"/>
<rect x="550" y="800" width="50" height="50" fill="black"/>
<rect x="500" y="850" width="50" height="50" fill="black"/>
<rect x="450" y="850" width="50" height="50" fill="black"/>
<rect x="400" y="850" width="50" height="50" fill="black"/>
<rect x="350" y="850" width="50" height="50" fill="black"/>
<rect x="350" y="800" width="50" height="50" fill="black"/>
<rect x="350" y="750" width="50" height="50" fill="black"/>
<rect x="400" y="750" width="50" height="50" fill="black"/>
<rect x="500" y="750" width="50" height="50" fill="black"/>
<rect x="300" y="550" width="50" height="50" fill="black"/>
<rect x="300" y="600" width="50" height="50" fill="black"/>
<rect x="300" y="650" width="50" height="50" fill="black"/>
<rect x="350" y="700" width="50" height="50" fill="black"/>
<rect x="300" y="700" width="50" height="50" fill="black"/>
<rect x="50" y="150" width="50" height="50" fill="black"/>
<rect y="200" width="50" height="50" fill="black"/>
<rect y="250" width="50" height="50" fill="black"/>
<rect y="300" width="50" height="50" fill="black"/>
<rect x="50" y="350" width="50" height="50" fill="black"/>
<rect x="100" y="350" width="50" height="50" fill="black"/>
<rect x="100" y="400" width="50" height="50" fill="black"/>
<rect x="100" y="450" width="50" height="50" fill="black"/>
<rect x="150" y="500" width="50" height="50" fill="black"/>
<rect x="150" y="550" width="50" height="50" fill="black"/>
<rect x="200" y="600" width="50" height="50" fill="black"/>
<rect x="250" y="650" width="50" height="50" fill="black"/>
</svg>
