<svg width="650" height="800" viewBox="0 0 650 800" fill="none" xmlns="http://www.w3.org/2000/svg">
<rect x="200" y="50" width="50" height="50" fill="#FF00D5"/>
<rect x="550" y="50" width="50" height="50" fill="#FF00D5"/>
<rect x="200" y="250" width="50" height="50" fill="#FF00D5"/>
<rect x="200" y="300" width="50" height="50" fill="#FF00D5"/>
<rect x="200" y="350" width="50" height="50" fill="#FF00D5"/>
<rect x="550" y="250" width="50" height="50" fill="#FF00D5"/>
<rect x="200" y="550" width="50" height="50" fill="#FF00D5"/>
<rect x="550" y="550" width="50" height="50" fill="#FF00D5"/>
<rect x="150" y="600" width="50" height="50" fill="#FF00D5"/>
<rect x="500" y="600" width="50" height="50" fill="#FF00D4"/>
<rect x="500" y="50" width="50" height="50" fill="#FF00D5"/>
<rect x="500" y="250" width="50" height="50" fill="#FF00D5"/>
<rect x="100" y="600" width="50" height="50" fill="white"/>
<rect x="450" y="600" width="50" height="50" fill="white"/>
<rect x="450" y="50" width="50" height="50" fill="#FF00D5"/>
<rect x="450" y="250" width="50" height="50" fill="#FF00D5"/>
<rect x="50" y="600" width="50" height="50" fill="white"/>
<rect x="400" y="600" width="50" height="50" fill="white"/>
<rect x="400" y="50" width="50" height="50" fill="#FF00D5"/>
<rect x="400" y="250" width="50" height="50" fill="#FF00D5"/>
<rect x="200" y="400" width="50" height="50" fill="#FF00D5"/>
<rect x="550" y="400" width="50" height="50" fill="#FF00D5"/>
<rect x="550" y="350" width="50" height="50" fill="#FF00D5"/>
<rect x="550" y="300" width="50" height="50" fill="#FF00D5"/>
<rect x="200" y="600" width="50" height="50" fill="#FF00D5"/>
<rect x="550" y="600" width="50" height="50" fill="#FF00D5"/>
<rect x="150" y="650" width="50" height="50" fill="#FF00D5"/>
<rect x="500" y="650" width="50" height="50" fill="#FF00D5"/>
<rect x="100" y="650" width="50" height="50" fill="#FF00D5"/>
<rect x="450" y="650" width="50" height="50" fill="#FF00D4"/>
<rect x="50" y="650" width="50" height="50" fill="white"/>
<rect x="400" y="650" width="50" height="50" fill="white"/>
<rect x="250" y="50" width="50" height="50" fill="#FF00D5"/>
<rect x="300" y="50" width="50" height="50" fill="#FF00D5"/>
<rect x="350" y="50" width="50" height="50" fill="#FF00D5"/>
<rect x="250" y="250" width="50" height="50" fill="#FF00D5"/>
<rect x="300" y="250" width="50" height="50" fill="#FF00D5"/>
<rect x="350" y="250" width="50" height="50" fill="#FF00D5"/>
<rect x="200" y="450" width="50" height="50" fill="#FF00D5"/>
<rect x="550" y="450" width="50" height="50" fill="#FF00D5"/>
<rect x="200" y="650" width="50" height="50" fill="#FF00D5"/>
<rect x="550" y="650" width="50" height="50" fill="#FF00D5"/>
<rect x="150" y="700" width="50" height="50" fill="#FF00D5"/>
<rect x="500" y="700" width="50" height="50" fill="#FF00D5"/>
<rect x="100" y="700" width="50" height="50" fill="#FF00D5"/>
<rect x="450" y="700" width="50" height="50" fill="#FF00D5"/>
<rect x="200" y="100" width="50" height="50" fill="#FF00D5"/>
<rect x="200" y="150" width="50" height="50" fill="#FF00D5"/>
<rect x="200" y="200" width="50" height="50" fill="#FF00D5"/>
<rect x="550" y="100" width="50" height="50" fill="#FF00D5"/>
<rect x="550" y="150" width="50" height="50" fill="#FF00D5"/>
<rect x="550" y="200" width="50" height="50" fill="#FF00D5"/>
<rect x="200" y="500" width="50" height="50" fill="#FF00D5"/>
<rect x="550" y="500" width="50" height="50" fill="#FF00D5"/>
<rect x="150" y="550" width="50" height="50" fill="white"/>
<rect x="500" y="550" width="50" height="50" fill="white"/>
<rect x="500" y="500" width="50" height="50" fill="black"/>
<rect x="450" y="500" width="50" height="50" fill="black"/>
<rect x="400" y="500" width="50" height="50" fill="black"/>
<rect x="400" y="550" width="50" height="50" fill="black"/>
<rect x="350" y="550" width="50" height="50" fill="black"/>
<rect x="350" y="600" width="50" height="50" fill="black"/>
<rect x="350" y="650" width="50" height="50" fill="black"/>
<rect x="350" y="700" width="50" height="50" fill="black"/>
<rect x="400" y="700" width="50" height="50" fill="black"/>
<rect x="400" y="750" width="50" height="50" fill="black"/>
<rect x="450" y="750" width="50" height="50" fill="black"/>
<rect x="500" y="750" width="50" height="50" fill="black"/>
<rect x="550" y="750" width="50" height="50" fill="black"/>
<rect x="550" y="700" width="50" height="50" fill="black"/>
<rect x="600" y="700" width="50" height="50" fill="black"/>
<rect x="600" y="650" width="50" height="50" fill="black"/>
<rect x="600" y="600" width="50" height="50" fill="black"/>
<rect x="600" y="550" width="50" height="50" fill="black"/>
<rect x="600" y="500" width="50" height="50" fill="black"/>
<rect x="600" y="450" width="50" height="50" fill="black"/>
<rect x="600" y="400" width="50" height="50" fill="black"/>
<rect x="600" y="350" width="50" height="50" fill="black"/>
<rect x="600" y="300" width="50" height="50" fill="black"/>
<rect x="600" y="250" width="50" height="50" fill="black"/>
<rect x="600" y="200" width="50" height="50" fill="black"/>
<rect x="600" y="150" width="50" height="50" fill="black"/>
<rect x="600" y="100" width="50" height="50" fill="black"/>
<rect x="600" y="50" width="50" height="50" fill="black"/>
<rect x="600" width="50" height="50" fill="black"/>
<rect x="550" width="50" height="50" fill="black"/>
<rect x="500" width="50" height="50" fill="black"/>
<rect x="450" width="50" height="50" fill="black"/>
<rect x="400" width="50" height="50" fill="black"/>
<rect x="350" width="50" height="50" fill="black"/>
<rect x="300" width="50" height="50" fill="black"/>
<rect x="250" width="50" height="50" fill="black"/>
<rect x="200" width="50" height="50" fill="black"/>
<rect x="150" width="50" height="50" fill="black"/>
<rect x="150" y="50" width="50" height="50" fill="black"/>
<rect x="150" y="100" width="50" height="50" fill="black"/>
<rect x="150" y="150" width="50" height="50" fill="black"/>
<rect x="150" y="200" width="50" height="50" fill="black"/>
<rect x="150" y="250" width="50" height="50" fill="black"/>
<rect x="150" y="300" width="50" height="50" fill="black"/>
<rect x="150" y="350" width="50" height="50" fill="black"/>
<rect x="150" y="400" width="50" height="50" fill="black"/>
<rect x="150" y="450" width="50" height="50" fill="black"/>
<rect x="150" y="500" width="50" height="50" fill="black"/>
<rect x="100" y="500" width="50" height="50" fill="black"/>
<rect x="50" y="500" width="50" height="50" fill="black"/>
<rect x="50" y="550" width="50" height="50" fill="black"/>
<rect y="550" width="50" height="50" fill="black"/>
<rect y="600" width="50" height="50" fill="black"/>
<rect y="650" width="50" height="50" fill="black"/>
<rect y="700" width="50" height="50" fill="black"/>
<rect x="50" y="700" width="50" height="50" fill="black"/>
<rect x="50" y="750" width="50" height="50" fill="black"/>
<rect x="100" y="750" width="50" height="50" fill="black"/>
<rect x="150" y="750" width="50" height="50" fill="black"/>
<rect x="200" y="750" width="50" height="50" fill="black"/>
<rect x="200" y="700" width="50" height="50" fill="black"/>
<rect x="250" y="700" width="50" height="50" fill="black"/>
<rect x="250" y="650" width="50" height="50" fill="black"/>
<rect x="250" y="600" width="50" height="50" fill="black"/>
<rect x="250" y="550" width="50" height="50" fill="black"/>
<rect x="250" y="500" width="50" height="50" fill="black"/>
<rect x="250" y="450" width="50" height="50" fill="black"/>
<rect x="250" y="400" width="50" height="50" fill="black"/>
<rect x="250" y="350" width="50" height="50" fill="black"/>
<rect x="250" y="300" width="50" height="50" fill="black"/>
<rect x="250" y="200" width="50" height="50" fill="black"/>
<rect x="250" y="150" width="50" height="50" fill="black"/>
<rect x="250" y="100" width="50" height="50" fill="black"/>
<rect x="300" y="100" width="50" height="50" fill="black"/>
<rect x="350" y="100" width="50" height="50" fill="black"/>
<rect x="400" y="100" width="50" height="50" fill="black"/>
<rect x="450" y="100" width="50" height="50" fill="black"/>
<rect x="500" y="100" width="50" height="50" fill="black"/>
<rect x="500" y="150" width="50" height="50" fill="black"/>
<rect x="500" y="200" width="50" height="50" fill="black"/>
<rect x="450" y="200" width="50" height="50" fill="black"/>
<rect x="400" y="200" width="50" height="50" fill="black"/>
<rect x="350" y="200" width="50" height="50" fill="black"/>
<rect x="300" y="200" width="50" height="50" fill="black"/>
<rect x="300" y="300" width="50" height="50" fill="black"/>
<rect x="350" y="300" width="50" height="50" fill="black"/>
<rect x="400" y="300" width="50" height="50" fill="black"/>
<rect x="450" y="300" width="50" height="50" fill="black"/>
<rect x="500" y="300" width="50" height="50" fill="black"/>
<rect x="500" y="350" width="50" height="50" fill="black"/>
<rect x="500" y="400" width="50" height="50" fill="black"/>
<rect x="500" y="450" width="50" height="50" fill="black"/>
<rect x="100" y="550" width="50" height="50" fill="white"/>
<rect x="450" y="550" width="50" height="50" fill="white"/>
</svg>
