<svg width="63" height="56" viewBox="0 0 63 56" fill="none" xmlns="http://www.w3.org/2000/svg">
<rect width="3.35292" height="3.35292" transform="matrix(-0.812877 -0.582435 -0.582435 0.812877 47.1982 43.4384)" fill="#4894FF"/>
<rect width="3.35292" height="3.35292" transform="matrix(-0.812877 -0.582435 -0.582435 0.812877 62.4141 33.7166)" fill="#4894FF"/>
<rect width="3.35292" height="3.35292" transform="matrix(-0.812877 -0.582435 -0.582435 0.812877 43.335 20.0465)" fill="#4894FF"/>
<rect width="3.35292" height="3.35292" transform="matrix(-0.812877 -0.582435 -0.582435 0.812877 24.2568 6.37659)" fill="#4894FF"/>
<rect width="3.35292" height="3.35292" transform="matrix(-0.812877 -0.582435 -0.582435 0.812877 19.9434 23.9098)" fill="#4894FF"/>
<rect width="3.35292" height="3.35292" transform="matrix(-0.812877 -0.582435 -0.582435 0.812877 45.2456 46.1639)" fill="#4894FF"/>
<rect width="3.35292" height="3.35292" transform="matrix(-0.812877 -0.582435 -0.582435 0.812877 42.52 44.2111)" fill="#BDEAF9"/>
<rect width="3.35292" height="3.35292" transform="matrix(-0.812877 -0.582435 -0.582435 0.812877 57.7358 34.4893)" fill="#BDEAF9"/>
<rect width="3.35292" height="3.35292" transform="matrix(-0.812877 -0.582435 -0.582435 0.812877 38.6567 20.8192)" fill="#BDEAF9"/>
<rect width="3.35292" height="3.35292" transform="matrix(-0.812877 -0.582435 -0.582435 0.812877 19.5786 7.14917)" fill="#BDEAF9"/>
<rect width="3.35292" height="3.35292" transform="matrix(-0.812877 -0.582435 -0.582435 0.812877 15.2651 24.6825)" fill="#BDEAF9"/>
<rect width="3.35292" height="3.35292" transform="matrix(-0.812877 -0.582435 -0.582435 0.812877 60.4614 36.442)" fill="#4894FF"/>
<rect width="3.35292" height="3.35292" transform="matrix(-0.812877 -0.582435 -0.582435 0.812877 41.3818 22.772)" fill="#4894FF"/>
<rect width="3.35292" height="3.35292" transform="matrix(-0.812877 -0.582435 -0.582435 0.812877 22.3037 9.10193)" fill="#4894FF"/>
<rect width="3.35292" height="3.35292" transform="matrix(-0.812877 -0.582435 -0.582435 0.812877 17.9907 26.6353)" fill="#4894FF"/>
<rect width="3.35292" height="3.35292" transform="matrix(-0.812877 -0.582435 -0.582435 0.812877 43.2925 48.8894)" fill="#4894FF"/>
<rect width="3.35292" height="3.35292" transform="matrix(-0.812877 -0.582435 -0.582435 0.812877 58.5078 39.1676)" fill="#4894FF"/>
<rect width="3.35292" height="3.35292" transform="matrix(-0.812877 -0.582435 -0.582435 0.812877 39.4297 25.4976)" fill="#4894FF"/>
<rect width="3.35292" height="3.35292" transform="matrix(-0.812877 -0.582435 -0.582435 0.812877 20.3511 11.8275)" fill="#4894FF"/>
<rect width="3.35292" height="3.35292" transform="matrix(-0.812877 -0.582435 -0.582435 0.812877 16.0376 29.3608)" fill="#4894FF"/>
<rect width="3.35292" height="3.35292" transform="matrix(-0.812877 -0.582435 -0.582435 0.812877 40.5674 46.9366)" fill="#4894FF"/>
<rect width="3.35292" height="3.35292" transform="matrix(-0.812877 -0.582435 -0.582435 0.812877 55.7822 37.2147)" fill="#4894FF"/>
<rect width="3.35292" height="3.35292" transform="matrix(-0.812877 -0.582435 -0.582435 0.812877 36.7036 23.5447)" fill="#4894FF"/>
<rect width="3.35292" height="3.35292" transform="matrix(-0.812877 -0.582435 -0.582435 0.812877 17.6255 9.87463)" fill="#4894FF"/>
<rect width="3.35292" height="3.35292" transform="matrix(-0.812877 -0.582435 -0.582435 0.812877 13.312 27.4078)" fill="#4894FF"/>
<rect width="3.35292" height="3.35292" transform="matrix(-0.812877 -0.582435 -0.582435 0.812877 44.4731 41.4856)" fill="#4894FF"/>
<rect width="3.35292" height="3.35292" transform="matrix(-0.812877 -0.582435 -0.582435 0.812877 59.6885 31.7637)" fill="#4894FF"/>
<rect width="3.35292" height="3.35292" transform="matrix(-0.812877 -0.582435 -0.582435 0.812877 40.6099 18.0936)" fill="#4894FF"/>
<rect width="3.35292" height="3.35292" transform="matrix(-0.812877 -0.582435 -0.582435 0.812877 21.5308 4.42358)" fill="#4894FF"/>
<rect width="3.35292" height="3.35292" transform="matrix(-0.812877 -0.582435 -0.582435 0.812877 17.2178 21.9569)" fill="#4894FF"/>
<rect width="3.35292" height="3.35292" transform="matrix(-0.812877 -0.582435 -0.582435 0.812877 46.4258 38.76)" fill="#5F6C75"/>
<rect width="3.35292" height="3.35292" transform="matrix(-0.812877 -0.582435 -0.582435 0.812877 45.6533 34.0817)" fill="#5F6C75"/>
<rect width="3.35292" height="3.35292" transform="matrix(-0.812877 -0.582435 -0.582435 0.812877 44.8804 29.4033)" fill="#5F6C75"/>
<rect width="3.35292" height="3.35292" transform="matrix(-0.812877 -0.582435 -0.582435 0.812877 28.5278 17.6862)" fill="#5F6C75"/>
<rect width="3.35292" height="3.35292" transform="matrix(-0.812877 -0.582435 -0.582435 0.812877 23.8496 18.4587)" fill="#5F6C75"/>
<rect width="3.35292" height="3.35292" transform="matrix(-0.812877 -0.582435 -0.582435 0.812877 19.1704 19.2314)" fill="#5F6C75"/>
<rect width="3.35292" height="3.35292" transform="matrix(-0.812877 -0.582435 -0.582435 0.812877 46.8335 26.6777)" fill="#5F6C75"/>
<rect width="3.35292" height="3.35292" transform="matrix(-0.812877 -0.582435 -0.582435 0.812877 27.7549 13.0077)" fill="#5F6C75"/>
<rect width="3.35292" height="3.35292" transform="matrix(-0.812877 -0.582435 -0.582435 0.812877 44.1079 24.725)" fill="#5F6C75"/>
<rect width="3.35292" height="3.35292" transform="matrix(-0.812877 -0.582435 -0.582435 0.812877 25.0293 11.0549)" fill="#5F6C75"/>
<rect width="3.35292" height="3.35292" transform="matrix(-0.812877 -0.582435 -0.582435 0.812877 49.5591 28.6307)" fill="#5F6C75"/>
<rect width="3.35292" height="3.35292" transform="matrix(-0.812877 -0.582435 -0.582435 0.812877 30.4805 14.9607)" fill="#5F6C75"/>
<rect width="3.35292" height="3.35292" transform="matrix(-0.812877 -0.582435 -0.582435 0.812877 52.2842 30.5834)" fill="#5F6C75"/>
<rect width="3.35292" height="3.35292" transform="matrix(-0.812877 -0.582435 -0.582435 0.812877 33.2061 16.9135)" fill="#5F6C75"/>
<rect width="3.35292" height="3.35292" transform="matrix(-0.812877 -0.582435 -0.582435 0.812877 41.7476 39.5326)" fill="#4894FF"/>
<rect width="3.35292" height="3.35292" transform="matrix(-0.812877 -0.582435 -0.582435 0.812877 56.9629 29.8108)" fill="#4894FF"/>
<rect width="3.35292" height="3.35292" transform="matrix(-0.812877 -0.582435 -0.582435 0.812877 37.8843 16.1407)" fill="#4894FF"/>
<rect width="3.35292" height="3.35292" transform="matrix(-0.812877 -0.582435 -0.582435 0.812877 18.8052 2.47095)" fill="#4894FF"/>
<rect width="3.35292" height="3.35292" transform="matrix(-0.812877 -0.582435 -0.582435 0.812877 14.4922 20.004)" fill="#4894FF"/>
<rect width="3.35292" height="3.35292" transform="matrix(-0.812877 -0.582435 -0.582435 0.812877 39.7944 42.2582)" fill="#4894FF"/>
<rect width="3.35292" height="3.35292" transform="matrix(-0.812877 -0.582435 -0.582435 0.812877 55.0103 32.5364)" fill="#4894FF"/>
<rect width="3.35292" height="3.35292" transform="matrix(-0.812877 -0.582435 -0.582435 0.812877 35.9312 18.8663)" fill="#4894FF"/>
<rect width="3.35292" height="3.35292" transform="matrix(-0.812877 -0.582435 -0.582435 0.812877 16.8525 5.19629)" fill="#4894FF"/>
<rect width="3.35292" height="3.35292" transform="matrix(-0.812877 -0.582435 -0.582435 0.812877 12.5396 22.7296)" fill="#4894FF"/>
<rect width="3.35292" height="3.35292" transform="matrix(-0.812877 -0.582435 -0.582435 0.812877 37.8418 44.9836)" fill="#4894FF"/>
<rect width="3.35292" height="3.35292" transform="matrix(-0.812877 -0.582435 -0.582435 0.812877 53.0576 35.2618)" fill="#4894FF"/>
<rect width="3.35292" height="3.35292" transform="matrix(-0.812877 -0.582435 -0.582435 0.812877 33.9785 21.5918)" fill="#4894FF"/>
<rect width="3.35292" height="3.35292" transform="matrix(-0.812877 -0.582435 -0.582435 0.812877 14.8999 7.92188)" fill="#4894FF"/>
<rect width="3.35292" height="3.35292" transform="matrix(-0.812877 -0.582435 -0.582435 0.812877 10.5869 25.4552)" fill="#4894FF"/>
</svg>
