<svg width="54" height="63" viewBox="0 0 54 63" fill="none" xmlns="http://www.w3.org/2000/svg">
<rect x="27.8691" y="56.6935" width="3.3125" height="3.3125" transform="rotate(-26.1685 27.8691 56.6935)" fill="black"/>
<rect x="26.4087" y="53.7205" width="3.3125" height="3.3125" transform="rotate(-26.1685 26.4087 53.7205)" fill="black"/>
<rect x="23.4868" y="47.7745" width="3.3125" height="3.3125" transform="rotate(-26.1685 23.4868 47.7745)" fill="black"/>
<rect x="22.0259" y="44.8015" width="3.3125" height="3.3125" transform="rotate(-26.1685 22.0259 44.8015)" fill="#A1AAB7"/>
<rect x="20.5649" y="41.8286" width="3.3125" height="3.3125" transform="rotate(-26.1685 20.5649 41.8286)" fill="white"/>
<rect x="19.104" y="38.8556" width="3.3125" height="3.3125" transform="rotate(-26.1685 19.104 38.8556)" fill="white"/>
<rect x="17.6436" y="35.8826" width="3.3125" height="3.3125" transform="rotate(-26.1685 17.6436 35.8826)" fill="white"/>
<rect x="16.1826" y="32.9097" width="3.3125" height="3.3125" transform="rotate(-26.1685 16.1826 32.9097)" fill="white"/>
<rect x="20.6167" y="34.4216" width="3.3125" height="3.3125" transform="rotate(-26.1685 20.6167 34.4216)" fill="white"/>
<rect x="19.1558" y="31.4487" width="3.3125" height="3.3125" transform="rotate(-26.1685 19.1558 31.4487)" fill="white"/>
<rect x="17.6948" y="28.4757" width="3.3125" height="3.3125" transform="rotate(-26.1685 17.6948 28.4757)" fill="white"/>
<rect x="16.2339" y="25.5028" width="3.3125" height="3.3125" transform="rotate(-26.1685 16.2339 25.5028)" fill="white"/>
<rect x="14.7729" y="22.5298" width="3.3125" height="3.3125" transform="rotate(-26.1685 14.7729 22.5298)" fill="white"/>
<rect x="29.5352" y="30.0392" width="3.3125" height="3.3125" transform="rotate(-26.1685 29.5352 30.0392)" fill="white"/>
<rect x="28.0747" y="27.0663" width="3.3125" height="3.3125" transform="rotate(-26.1685 28.0747 27.0663)" fill="white"/>
<rect x="26.6138" y="24.0933" width="3.3125" height="3.3125" transform="rotate(-26.1685 26.6138 24.0933)" fill="white"/>
<rect x="25.1528" y="21.1202" width="3.3125" height="3.3125" transform="rotate(-26.1685 25.1528 21.1202)" fill="white"/>
<rect x="23.6919" y="18.1473" width="3.3125" height="3.3125" transform="rotate(-26.1685 23.6919 18.1473)" fill="white"/>
<rect x="23.6406" y="25.5541" width="3.3125" height="3.3125" transform="rotate(-26.1685 23.6406 25.5541)" fill="white"/>
<rect x="22.1797" y="22.5811" width="3.3125" height="3.3125" transform="rotate(-26.1685 22.1797 22.5811)" fill="white"/>
<rect x="20.7192" y="19.6082" width="3.3125" height="3.3125" transform="rotate(-26.1685 20.7192 19.6082)" fill="white"/>
<rect x="19.2583" y="16.6351" width="3.3125" height="3.3125" transform="rotate(-26.1685 19.2583 16.6351)" fill="white"/>
<rect x="17.7974" y="13.6622" width="3.3125" height="3.3125" transform="rotate(-26.1685 17.7974 13.6622)" fill="white"/>
<rect x="16.3364" y="10.6892" width="3.3125" height="3.3125" transform="rotate(-26.1685 16.3364 10.6892)" fill="white"/>
<rect x="20.668" y="27.0149" width="3.3125" height="3.3125" transform="rotate(-26.1685 20.668 27.0149)" fill="white"/>
<rect x="19.207" y="24.0419" width="3.3125" height="3.3125" transform="rotate(-26.1685 19.207 24.0419)" fill="white"/>
<rect x="17.7461" y="21.069" width="3.3125" height="3.3125" transform="rotate(-26.1685 17.7461 21.069)" fill="white"/>
<rect x="16.2852" y="18.0959" width="3.3125" height="3.3125" transform="rotate(-26.1685 16.2852 18.0959)" fill="white"/>
<rect x="14.8242" y="15.123" width="3.3125" height="3.3125" transform="rotate(-26.1685 14.8242 15.123)" fill="white"/>
<rect x="13.3638" y="12.15" width="3.3125" height="3.3125" transform="rotate(-26.1685 13.3638 12.15)" fill="white"/>
<rect x="24.9478" y="50.7474" width="3.3125" height="3.3125" transform="rotate(-26.1685 24.9478 50.7474)" fill="#FFD322"/>
<rect x="21.9746" y="52.2083" width="3.3125" height="3.3125" transform="rotate(-26.1685 21.9746 52.2083)" fill="black"/>
<rect x="19.0532" y="46.2623" width="3.3125" height="3.3125" transform="rotate(-26.1685 19.0532 46.2623)" fill="black"/>
<rect x="17.5923" y="43.2894" width="3.3125" height="3.3125" transform="rotate(-26.1685 17.5923 43.2894)" fill="white"/>
<rect x="14.6191" y="44.7502" width="3.3125" height="3.3125" transform="rotate(-26.1685 14.6191 44.7502)" fill="black"/>
<rect x="16.1313" y="40.3164" width="3.3125" height="3.3125" transform="rotate(-26.1685 16.1313 40.3164)" fill="black"/>
<rect x="36.9424" y="30.0903" width="3.3125" height="3.3125" transform="rotate(-26.1685 36.9424 30.0903)" fill="black"/>
<rect x="14.6704" y="37.3434" width="3.3125" height="3.3125" transform="rotate(-26.1685 14.6704 37.3434)" fill="black"/>
<rect x="35.4814" y="27.1173" width="3.3125" height="3.3125" transform="rotate(-26.1685 35.4814 27.1173)" fill="black"/>
<rect x="13.2095" y="34.3705" width="3.3125" height="3.3125" transform="rotate(-26.1685 13.2095 34.3705)" fill="black"/>
<rect x="34.0205" y="24.1444" width="3.3125" height="3.3125" transform="rotate(-26.1685 34.0205 24.1444)" fill="black"/>
<rect x="14.7217" y="29.9366" width="3.3125" height="3.3125" transform="rotate(-26.1685 14.7217 29.9366)" fill="black"/>
<rect x="29.5864" y="22.6324" width="3.3125" height="3.3125" transform="rotate(-26.1685 29.5864 22.6324)" fill="black"/>
<rect x="13.3125" y="19.5568" width="3.3125" height="3.3125" transform="rotate(-26.1685 13.3125 19.5568)" fill="black"/>
<rect x="22.231" y="15.1743" width="3.3125" height="3.3125" transform="rotate(-26.1685 22.231 15.1743)" fill="black"/>
<rect x="13.2607" y="26.9637" width="3.3125" height="3.3125" transform="rotate(-26.1685 13.2607 26.9637)" fill="black"/>
<rect x="28.1255" y="19.6594" width="3.3125" height="3.3125" transform="rotate(-26.1685 28.1255 19.6594)" fill="black"/>
<rect x="11.8516" y="16.5839" width="3.3125" height="3.3125" transform="rotate(-26.1685 11.8516 16.5839)" fill="black"/>
<rect x="20.77" y="12.2014" width="3.3125" height="3.3125" transform="rotate(-26.1685 20.77 12.2014)" fill="black"/>
<rect x="11.7998" y="23.9907" width="3.3125" height="3.3125" transform="rotate(-26.1685 11.7998 23.9907)" fill="black"/>
<rect x="26.665" y="16.6864" width="3.3125" height="3.3125" transform="rotate(-26.1685 26.665 16.6864)" fill="black"/>
<rect x="10.3906" y="13.6108" width="3.3125" height="3.3125" transform="rotate(-26.1685 10.3906 13.6108)" fill="black"/>
<rect x="19.3096" y="9.22839" width="3.3125" height="3.3125" transform="rotate(-26.1685 19.3096 9.22839)" fill="black"/>
<rect x="11.9028" y="9.17712" width="3.3125" height="3.3125" transform="rotate(-26.1685 11.9028 9.17712)" fill="black"/>
<rect x="14.8755" y="7.71619" width="3.3125" height="3.3125" transform="rotate(-26.1685 14.8755 7.71619)" fill="black"/>
<rect x="32.3545" y="50.7987" width="3.3125" height="3.3125" transform="rotate(-26.1685 32.3545 50.7987)" fill="black"/>
<rect x="29.4331" y="44.8528" width="3.3125" height="3.3125" transform="rotate(-26.1685 29.4331 44.8528)" fill="black"/>
<rect x="27.9722" y="41.8798" width="3.3125" height="3.3125" transform="rotate(-26.1685 27.9722 41.8798)" fill="#5F6C75"/>
<rect x="26.5112" y="38.9067" width="3.3125" height="3.3125" transform="rotate(-26.1685 26.5112 38.9067)" fill="#5F6C75"/>
<rect x="30.8936" y="47.8257" width="3.3125" height="3.3125" transform="rotate(-26.1685 30.8936 47.8257)" fill="#FFD322"/>
<rect x="33.8154" y="53.7716" width="3.3125" height="3.3125" transform="rotate(-26.1685 33.8154 53.7716)" fill="#4894FF"/>
<rect x="38.3003" y="47.877" width="3.3125" height="3.3125" transform="rotate(-26.1685 38.3003 47.877)" fill="black"/>
<rect x="35.3789" y="41.9312" width="3.3125" height="3.3125" transform="rotate(-26.1685 35.3789 41.9312)" fill="black"/>
<rect x="33.918" y="38.9581" width="3.3125" height="3.3125" transform="rotate(-26.1685 33.918 38.9581)" fill="#A1AAB7"/>
<rect x="32.457" y="35.9851" width="3.3125" height="3.3125" transform="rotate(-26.1685 32.457 35.9851)" fill="white"/>
<rect x="36.8394" y="44.9041" width="3.3125" height="3.3125" transform="rotate(-26.1685 36.8394 44.9041)" fill="#FFD322"/>
<rect x="39.7612" y="50.85" width="3.3125" height="3.3125" transform="rotate(-26.1685 39.7612 50.85)" fill="black"/>
<rect x="29.3818" y="52.2595" width="3.3125" height="3.3125" transform="rotate(-26.1685 29.3818 52.2595)" fill="black"/>
<rect x="26.46" y="46.3136" width="3.3125" height="3.3125" transform="rotate(-26.1685 26.46 46.3136)" fill="black"/>
<rect x="24.999" y="43.3406" width="3.3125" height="3.3125" transform="rotate(-26.1685 24.999 43.3406)" fill="#A1AAB7"/>
<rect x="23.5381" y="40.3676" width="3.3125" height="3.3125" transform="rotate(-26.1685 23.5381 40.3676)" fill="white"/>
<rect x="25.0503" y="35.9338" width="3.3125" height="3.3125" transform="rotate(-26.1685 25.0503 35.9338)" fill="#A1AAB7"/>
<rect x="28.0234" y="34.473" width="3.3125" height="3.3125" transform="rotate(-26.1685 28.0234 34.473)" fill="#A1AAB7"/>
<rect x="27.9209" y="49.2865" width="3.3125" height="3.3125" transform="rotate(-26.1685 27.9209 49.2865)" fill="#FFD322"/>
<rect x="30.8428" y="55.2324" width="3.3125" height="3.3125" transform="rotate(-26.1685 30.8428 55.2324)" fill="black"/>
<rect x="35.3276" y="49.3379" width="3.3125" height="3.3125" transform="rotate(-26.1685 35.3276 49.3379)" fill="black"/>
<rect x="32.4058" y="43.392" width="3.3125" height="3.3125" transform="rotate(-26.1685 32.4058 43.392)" fill="black"/>
<rect x="30.9448" y="40.4189" width="3.3125" height="3.3125" transform="rotate(-26.1685 30.9448 40.4189)" fill="#5F6C75"/>
<rect x="29.4844" y="37.4459" width="3.3125" height="3.3125" transform="rotate(-26.1685 29.4844 37.4459)" fill="#5F6C75"/>
<rect x="26.5625" y="31.5" width="3.3125" height="3.3125" transform="rotate(-26.1685 26.5625 31.5)" fill="#5F6C75"/>
<rect x="25.1016" y="28.5271" width="3.3125" height="3.3125" transform="rotate(-26.1685 25.1016 28.5271)" fill="#5F6C75"/>
<rect x="23.5894" y="32.9608" width="3.3125" height="3.3125" transform="rotate(-26.1685 23.5894 32.9608)" fill="#5F6C75"/>
<rect x="22.1289" y="29.9879" width="3.3125" height="3.3125" transform="rotate(-26.1685 22.1289 29.9879)" fill="#5F6C75"/>
<rect x="22.0776" y="37.3947" width="3.3125" height="3.3125" transform="rotate(-26.1685 22.0776 37.3947)" fill="#5F6C75"/>
<rect x="30.9961" y="33.0122" width="3.3125" height="3.3125" transform="rotate(-26.1685 30.9961 33.0122)" fill="#5F6C75"/>
<rect x="33.8667" y="46.3649" width="3.3125" height="3.3125" transform="rotate(-26.1685 33.8667 46.3649)" fill="#FFD322"/>
<rect x="36.7886" y="52.3108" width="3.3125" height="3.3125" transform="rotate(-26.1685 36.7886 52.3108)" fill="#4894FF"/>
<rect x="41.2734" y="46.4161" width="3.3125" height="3.3125" transform="rotate(-26.1685 41.2734 46.4161)" fill="black"/>
<rect x="38.3516" y="40.4703" width="3.3125" height="3.3125" transform="rotate(-26.1685 38.3516 40.4703)" fill="black"/>
<rect x="36.8906" y="37.4973" width="3.3125" height="3.3125" transform="rotate(-26.1685 36.8906 37.4973)" fill="#A1AAB7"/>
<rect x="35.4302" y="34.5243" width="3.3125" height="3.3125" transform="rotate(-26.1685 35.4302 34.5243)" fill="white"/>
<rect x="33.9692" y="31.5513" width="3.3125" height="3.3125" transform="rotate(-26.1685 33.9692 31.5513)" fill="white"/>
<rect x="32.5083" y="28.5784" width="3.3125" height="3.3125" transform="rotate(-26.1685 32.5083 28.5784)" fill="white"/>
<rect x="31.0474" y="25.6055" width="3.3125" height="3.3125" transform="rotate(-26.1685 31.0474 25.6055)" fill="white"/>
<rect x="39.8125" y="43.4432" width="3.3125" height="3.3125" transform="rotate(-26.1685 39.8125 43.4432)" fill="#FFD322"/>
<rect x="42.7856" y="41.9822" width="3.3125" height="3.3125" transform="rotate(-26.1685 42.7856 41.9822)" fill="black"/>
<rect x="39.8643" y="36.0364" width="3.3125" height="3.3125" transform="rotate(-26.1685 39.8643 36.0364)" fill="black"/>
<rect x="38.4033" y="33.0634" width="3.3125" height="3.3125" transform="rotate(-26.1685 38.4033 33.0634)" fill="white"/>
<rect x="41.376" y="31.6025" width="3.3125" height="3.3125" transform="rotate(-26.1685 41.376 31.6025)" fill="black"/>
<rect x="42.7344" y="49.3892" width="3.3125" height="3.3125" transform="rotate(-26.1685 42.7344 49.3892)" fill="black"/>
</svg>
