<svg width="1200" height="1150" viewBox="0 0 1200 1150" fill="none" xmlns="http://www.w3.org/2000/svg">
<rect x="550" width="50" height="50" fill="black"/>
<rect x="550" y="150" width="50" height="50" fill="#2D5CB8"/>
<rect x="500" y="50" width="50" height="50" fill="black"/>
<rect x="450" y="100" width="50" height="50" fill="black"/>
<rect x="450" y="150" width="50" height="50" fill="black"/>
<rect x="650" y="50" width="50" height="50" fill="black"/>
<rect x="700" y="100" width="50" height="50" fill="black"/>
<rect x="700" y="150" width="50" height="50" fill="black"/>
<rect x="750" y="200" width="50" height="50" fill="black"/>
<rect x="700" y="200" width="50" height="50" fill="white"/>
<rect x="450" y="200" width="50" height="50" fill="white"/>
<rect x="500" y="200" width="50" height="50" fill="white"/>
<rect x="550" y="200" width="50" height="50" fill="white"/>
<rect x="600" y="200" width="50" height="50" fill="white"/>
<rect x="650" y="200" width="50" height="50" fill="white"/>
<rect x="650" y="150" width="50" height="50" fill="white"/>
<rect x="650" y="100" width="50" height="50" fill="white"/>
<rect x="600" y="100" width="50" height="50" fill="white"/>
<rect x="600" y="50" width="50" height="50" fill="white"/>
<rect x="550" y="100" width="50" height="50" fill="white"/>
<rect x="550" y="50" width="50" height="50" fill="white"/>
<rect x="500" y="100" width="50" height="50" fill="white"/>
<rect x="500" y="150" width="50" height="50" fill="white"/>
<rect x="400" y="200" width="50" height="50" fill="black"/>
<rect x="750" y="350" width="50" height="50" fill="black"/>
<rect x="700" y="350" width="50" height="50" fill="white"/>
<rect x="450" y="350" width="50" height="50" fill="white"/>
<rect x="500" y="350" width="50" height="50" fill="white"/>
<rect x="550" y="350" width="50" height="50" fill="white"/>
<rect x="600" y="350" width="50" height="50" fill="white"/>
<rect x="650" y="350" width="50" height="50" fill="white"/>
<rect x="400" y="350" width="50" height="50" fill="black"/>
<rect x="750" y="250" width="50" height="50" fill="black"/>
<rect x="700" y="250" width="50" height="50" fill="white"/>
<rect x="450" y="250" width="50" height="50" fill="white"/>
<rect x="500" y="250" width="50" height="50" fill="white"/>
<rect x="550" y="250" width="50" height="50" fill="white"/>
<rect x="600" y="250" width="50" height="50" fill="white"/>
<rect x="650" y="250" width="50" height="50" fill="white"/>
<rect x="400" y="250" width="50" height="50" fill="black"/>
<rect x="750" y="400" width="50" height="50" fill="black"/>
<rect x="700" y="400" width="50" height="50" fill="white"/>
<rect x="450" y="400" width="50" height="50" fill="white"/>
<rect x="500" y="400" width="50" height="50" fill="white"/>
<rect x="550" y="400" width="50" height="50" fill="white"/>
<rect x="600" y="400" width="50" height="50" fill="white"/>
<rect x="650" y="400" width="50" height="50" fill="white"/>
<rect x="800" y="400" width="50" height="50" fill="#65A0FF"/>
<rect x="400" y="400" width="50" height="50" fill="black"/>
<rect x="350" y="400" width="50" height="50" fill="#65A0FF"/>
<rect x="750" y="300" width="50" height="50" fill="black"/>
<rect x="700" y="300" width="50" height="50" fill="white"/>
<rect x="450" y="300" width="50" height="50" fill="white"/>
<rect x="500" y="300" width="50" height="50" fill="white"/>
<rect x="550" y="300" width="50" height="50" fill="white"/>
<rect x="600" y="300" width="50" height="50" fill="white"/>
<rect x="650" y="300" width="50" height="50" fill="white"/>
<rect x="400" y="300" width="50" height="50" fill="black"/>
<rect x="750" y="450" width="50" height="50" fill="black"/>
<rect x="700" y="450" width="50" height="50" fill="white"/>
<rect x="450" y="450" width="50" height="50" fill="white"/>
<rect x="500" y="450" width="50" height="50" fill="white"/>
<rect x="550" y="450" width="50" height="50" fill="white"/>
<rect x="600" y="450" width="50" height="50" fill="white"/>
<rect x="650" y="450" width="50" height="50" fill="white"/>
<rect x="800" y="450" width="50" height="50" fill="#65A0FF"/>
<rect x="850" y="450" width="50" height="50" fill="#65A0FF"/>
<rect x="300" y="450" width="50" height="50" fill="#65A0FF"/>
<rect x="250" y="500" width="50" height="50" fill="#65A0FF"/>
<rect x="200" y="500" width="50" height="50" fill="#65A0FF"/>
<rect x="900" y="500" width="50" height="50" fill="#65A0FF"/>
<rect x="950" y="500" width="50" height="50" fill="#65A0FF"/>
<rect x="400" y="450" width="50" height="50" fill="black"/>
<rect x="350" y="450" width="50" height="50" fill="#65A0FF"/>
<rect x="750" y="500" width="50" height="50" fill="black"/>
<rect x="700" y="500" width="50" height="50" fill="white"/>
<rect x="450" y="500" width="50" height="50" fill="white"/>
<rect x="500" y="500" width="50" height="50" fill="white"/>
<rect x="550" y="500" width="50" height="50" fill="white"/>
<rect x="600" y="500" width="50" height="50" fill="white"/>
<rect x="650" y="500" width="50" height="50" fill="white"/>
<rect x="800" y="500" width="50" height="50" fill="#65A0FF"/>
<rect x="850" y="500" width="50" height="50" fill="#65A0FF"/>
<rect x="300" y="500" width="50" height="50" fill="#65A0FF"/>
<rect x="250" y="550" width="50" height="50" fill="#65A0FF"/>
<rect x="200" y="550" width="50" height="50" fill="#65A0FF"/>
<rect x="150" y="550" width="50" height="50" fill="#65A0FF"/>
<rect x="100" y="600" width="50" height="50" fill="#65A0FF"/>
<rect x="50" y="600" width="50" height="50" fill="#65A0FF"/>
<rect x="900" y="550" width="50" height="50" fill="#65A0FF"/>
<rect x="950" y="550" width="50" height="50" fill="#65A0FF"/>
<rect x="1000" y="550" width="50" height="50" fill="#65A0FF"/>
<rect x="1050" y="600" width="50" height="50" fill="#65A0FF"/>
<rect x="1100" y="600" width="50" height="50" fill="#65A0FF"/>
<rect x="400" y="500" width="50" height="50" fill="black"/>
<rect x="350" y="500" width="50" height="50" fill="#65A0FF"/>
<rect x="750" y="550" width="50" height="50" fill="black"/>
<rect x="700" y="550" width="50" height="50" fill="white"/>
<rect x="450" y="550" width="50" height="50" fill="white"/>
<rect x="500" y="550" width="50" height="50" fill="white"/>
<rect x="550" y="550" width="50" height="50" fill="white"/>
<rect x="600" y="550" width="50" height="50" fill="white"/>
<rect x="650" y="550" width="50" height="50" fill="white"/>
<rect x="800" y="550" width="50" height="50" fill="#2D5CB8"/>
<rect x="850" y="550" width="50" height="50" fill="#2D5CB8"/>
<rect x="300" y="550" width="50" height="50" fill="#2D5CB8"/>
<rect x="250" y="600" width="50" height="50" fill="#2D5CB8"/>
<rect x="200" y="600" width="50" height="50" fill="#2D5CB8"/>
<rect x="150" y="600" width="50" height="50" fill="#2D5CB8"/>
<rect x="100" y="650" width="50" height="50" fill="#2D5CB8"/>
<rect x="50" y="650" width="50" height="50" fill="#65A0FF"/>
<rect x="900" y="600" width="50" height="50" fill="#2D5CB8"/>
<rect x="950" y="600" width="50" height="50" fill="#2D5CB8"/>
<rect x="1000" y="600" width="50" height="50" fill="#2D5CB8"/>
<rect x="1050" y="650" width="50" height="50" fill="#2D5CB8"/>
<rect x="1100" y="650" width="50" height="50" fill="#65A0FF"/>
<rect x="400" y="550" width="50" height="50" fill="black"/>
<rect x="350" y="550" width="50" height="50" fill="#2D5CB8"/>
<rect x="750" y="600" width="50" height="50" fill="black"/>
<rect x="700" y="600" width="50" height="50" fill="white"/>
<rect x="450" y="600" width="50" height="50" fill="white"/>
<rect x="500" y="600" width="50" height="50" fill="white"/>
<rect x="550" y="600" width="50" height="50" fill="white"/>
<rect x="600" y="600" width="50" height="50" fill="white"/>
<rect x="650" y="600" width="50" height="50" fill="white"/>
<rect x="800" y="600" width="50" height="50" fill="black"/>
<rect x="850" y="600" width="50" height="50" fill="black"/>
<rect x="900" y="650" width="50" height="50" fill="black"/>
<rect x="950" y="650" width="50" height="50" fill="black"/>
<rect x="1000" y="650" width="50" height="50" fill="black"/>
<rect x="1050" y="700" width="50" height="50" fill="black"/>
<rect x="1100" y="700" width="50" height="50" fill="black"/>
<rect x="1150" y="700" width="50" height="50" fill="black"/>
<rect x="1150" y="650" width="50" height="50" fill="black"/>
<rect x="1150" y="600" width="50" height="50" fill="black"/>
<rect x="1100" y="550" width="50" height="50" fill="black"/>
<rect x="1050" y="550" width="50" height="50" fill="black"/>
<rect x="1000" y="500" width="50" height="50" fill="black"/>
<rect x="950" y="450" width="50" height="50" fill="black"/>
<rect x="900" y="450" width="50" height="50" fill="black"/>
<rect x="850" y="400" width="50" height="50" fill="black"/>
<rect x="800" y="350" width="50" height="50" fill="black"/>
<rect x="350" y="350" width="50" height="50" fill="black"/>
<rect x="300" y="400" width="50" height="50" fill="black"/>
<rect x="250" y="450" width="50" height="50" fill="black"/>
<rect x="200" y="450" width="50" height="50" fill="black"/>
<rect x="150" y="500" width="50" height="50" fill="black"/>
<rect x="100" y="550" width="50" height="50" fill="black"/>
<rect x="50" y="550" width="50" height="50" fill="black"/>
<rect y="600" width="50" height="50" fill="black"/>
<rect y="650" width="50" height="50" fill="black"/>
<rect y="700" width="50" height="50" fill="black"/>
<rect x="50" y="700" width="50" height="50" fill="black"/>
<rect x="100" y="700" width="50" height="50" fill="black"/>
<rect x="150" y="650" width="50" height="50" fill="black"/>
<rect x="200" y="650" width="50" height="50" fill="black"/>
<rect x="250" y="650" width="50" height="50" fill="black"/>
<rect x="300" y="600" width="50" height="50" fill="black"/>
<rect x="350" y="600" width="50" height="50" fill="black"/>
<rect x="400" y="600" width="50" height="50" fill="black"/>
<rect x="750" y="650" width="50" height="50" fill="black"/>
<rect x="700" y="650" width="50" height="50" fill="white"/>
<rect x="450" y="650" width="50" height="50" fill="white"/>
<rect x="500" y="650" width="50" height="50" fill="white"/>
<rect x="500" y="700" width="50" height="50" fill="white"/>
<rect x="500" y="750" width="50" height="50" fill="white"/>
<rect x="500" y="800" width="50" height="50" fill="white"/>
<rect x="550" y="650" width="50" height="50" fill="white"/>
<rect x="550" y="700" width="50" height="50" fill="white"/>
<rect x="550" y="750" width="50" height="50" fill="white"/>
<rect x="550" y="800" width="50" height="50" fill="white"/>
<rect x="600" y="650" width="50" height="50" fill="white"/>
<rect x="600" y="700" width="50" height="50" fill="white"/>
<rect x="600" y="750" width="50" height="50" fill="white"/>
<rect x="600" y="800" width="50" height="50" fill="white"/>
<rect x="650" y="650" width="50" height="50" fill="white"/>
<rect x="650" y="700" width="50" height="50" fill="white"/>
<rect x="650" y="750" width="50" height="50" fill="white"/>
<rect x="650" y="800" width="50" height="50" fill="white"/>
<rect x="700" y="700" width="50" height="50" fill="black"/>
<rect x="450" y="700" width="50" height="50" fill="black"/>
<rect x="500" y="850" width="50" height="50" fill="black"/>
<rect x="650" y="850" width="50" height="50" fill="black"/>
<rect x="400" y="650" width="50" height="50" fill="black"/>
<rect x="700" y="750" width="50" height="50" fill="black"/>
<rect x="450" y="750" width="50" height="50" fill="black"/>
<rect x="500" y="900" width="50" height="50" fill="black"/>
<rect x="650" y="900" width="50" height="50" fill="black"/>
<rect x="700" y="800" width="50" height="50" fill="black"/>
<rect x="450" y="800" width="50" height="50" fill="black"/>
<rect x="500" y="950" width="50" height="50" fill="black"/>
<rect x="450" y="950" width="50" height="50" fill="black"/>
<rect x="400" y="950" width="50" height="50" fill="black"/>
<rect x="350" y="1000" width="50" height="50" fill="black"/>
<rect x="350" y="1050" width="50" height="50" fill="black"/>
<rect x="400" y="1050" width="50" height="50" fill="black"/>
<rect x="400" y="1000" width="50" height="50" fill="#2D5CB8"/>
<rect x="450" y="1000" width="50" height="50" fill="#2D5CB8"/>
<rect x="500" y="1000" width="50" height="50" fill="#2D5CB8"/>
<rect x="550" y="1050" width="50" height="50" fill="#2D5CB8"/>
<rect x="600" y="1050" width="50" height="50" fill="#2D5CB8"/>
<rect x="650" y="1000" width="50" height="50" fill="#2D5CB8"/>
<rect x="600" y="1000" width="50" height="50" fill="#65A0FF"/>
<rect x="600" y="950" width="50" height="50" fill="#65A0FF"/>
<rect x="600" y="900" width="50" height="50" fill="#65A0FF"/>
<rect x="600" y="850" width="50" height="50" fill="#65A0FF"/>
<rect x="550" y="1000" width="50" height="50" fill="#65A0FF"/>
<rect x="550" y="950" width="50" height="50" fill="#65A0FF"/>
<rect x="550" y="900" width="50" height="50" fill="#65A0FF"/>
<rect x="550" y="850" width="50" height="50" fill="#65A0FF"/>
<rect x="700" y="1000" width="50" height="50" fill="#2D5CB8"/>
<rect x="750" y="1000" width="50" height="50" fill="#2D5CB8"/>
<rect x="450" y="1050" width="50" height="50" fill="black"/>
<rect x="500" y="1050" width="50" height="50" fill="black"/>
<rect x="550" y="1100" width="50" height="50" fill="black"/>
<rect x="600" y="1100" width="50" height="50" fill="black"/>
<rect x="650" y="950" width="50" height="50" fill="black"/>
<rect x="700" y="950" width="50" height="50" fill="black"/>
<rect x="750" y="950" width="50" height="50" fill="black"/>
<rect x="800" y="1000" width="50" height="50" fill="black"/>
<rect x="800" y="1050" width="50" height="50" fill="black"/>
<rect x="750" y="1050" width="50" height="50" fill="black"/>
<rect x="700" y="1050" width="50" height="50" fill="black"/>
<rect x="650" y="1050" width="50" height="50" fill="black"/>
<rect x="600" width="50" height="50" fill="black"/>
<rect x="600" y="150" width="50" height="50" fill="#2D5CB8"/>
</svg>
